<?xml version="1.0" standalone="no"?>
<!DOCTYPE svg PUBLIC "-//W3C//DTD SVG 20010904//EN"
 "http://www.w3.org/TR/2001/REC-SVG-20010904/DTD/svg10.dtd">
<svg version="1.0" xmlns="http://www.w3.org/2000/svg"
 width="500.000000pt" height="500.000000pt" viewBox="0 0 500.000000 500.000000"
 preserveAspectRatio="xMidYMid meet">
<metadata>
Created by potrace 1.11, written by Peter Selinger 2001-2013
</metadata>
<g transform="translate(0.000000,500.000000) scale(0.100000,-0.100000)"
fill="#000000" stroke="none">
<path d="M3197 3812 l-697 -697 -270 270 -270 270 -122 -123 -123 -122 393
-392 392 -393 815 815 c448 448 815 820 815 825 0 6 -53 63 -118 128 l-117
117 -698 -698z"/>
<path d="M607 4013 l-117 -118 697 -697 698 -698 -270 -270 -270 -270 123
-122 122 -123 392 393 393 392 -815 815 c-448 448 -819 815 -825 815 -6 0 -63
-53 -128 -117z"/>
<path d="M3015 2890 l-390 -390 815 -815 c448 -448 819 -815 825 -815 5 0 63
53 127 117 l118 118 -697 697 -698 698 270 270 270 270 -120 120 c-66 66 -122
120 -125 120 -3 0 -181 -176 -395 -390z"/>
<path d="M1682 1557 c-446 -446 -812 -816 -812 -822 0 -5 53 -63 117 -127
l118 -118 697 697 698 698 270 -270 270 -270 122 123 123 122 -390 390 c-214
215 -392 390 -395 390 -3 0 -371 -366 -818 -813z"/>
</g>
</svg>
